<svg height="512" viewBox="0 0 512 512" width="512" xmlns="http://www.w3.org/2000/svg"><g id="Male_Bald_Sunglasses" data-name="Male Bald Sunglasses"><circle cx="256.333" cy="256" fill="#79d1c9" r="248"/><path d="m433.25 82.229a255.416 255.416 0 0 1 14.75 85.771c0 141.385-114.615 256-256 256a254.82 254.82 0 0 1 -155.083-52.344 247.954 247.954 0 0 0 219.416 132.344c136.967 0 248-111.033 248-248a247.182 247.182 0 0 0 -71.083-173.771z" fill="#5fc4b8"/><path d="m344 464a88 88 0 0 0 -88-88 88 88 0 0 0 -88 88v23.787a248.753 248.753 0 0 0 176 .254z" fill="#ffd740"/><path d="m200 480a136.185 136.185 0 0 1 -32-3.812v11.6a248.753 248.753 0 0 0 176 .254v-24.042a87.667 87.667 0 0 0 -22.538-58.8 135.976 135.976 0 0 1 -121.462 74.8z" fill="#ffc400"/><path d="m232 360h48a0 0 0 0 1 0 0v24a24 24 0 0 1 -24 24 24 24 0 0 1 -24-24v-24a0 0 0 0 1 0 0z" fill="#f4c2b5"/><path d="m400 216h8a40 40 0 0 1 40 40 40 40 0 0 1 -40 40h-8v4a60 60 0 0 1 -60 60h-168a60 60 0 0 1 -60-60v-4h-8a40 40 0 0 1 -40-40 40 40 0 0 1 40-40h8v-16a144 144 0 0 1 144-144 144 144 0 0 1 144 144z" fill="#ffe7de"/><path d="m448 256a40 40 0 0 0 -40-40h-4.651a252.563 252.563 0 0 1 -168.129 144h104.78a60 60 0 0 0 60-60v-4h8a40 40 0 0 0 40-40z" fill="#f9d8cd"/><g fill="#fff"><circle cx="200" cy="120" r="24"/><circle cx="140" cy="300" r="12"/><circle cx="372" cy="300" r="12"/><circle cx="244" cy="92" r="12"/><circle cx="204" cy="412" r="12"/></g><path d="m217.875 272h-41.875a40.045 40.045 0 0 1 -40-40v-24a16.019 16.019 0 0 1 16-16h69.875a24 24 0 0 1 23.815 26.977l-4 32a24.038 24.038 0 0 1 -23.815 21.023z" fill="#525252"/><path d="m336 272h-41.875a24.038 24.038 0 0 1 -23.815-21.023l-4-32a24 24 0 0 1 23.815-26.977h69.875a16.019 16.019 0 0 1 16 16v24a40.045 40.045 0 0 1 -40 40z" fill="#525252"/><path d="m239.868 200.117a23.981 23.981 0 0 0 -8.567-6.179 72.013 72.013 0 0 1 -88.779 59.914 39.99 39.99 0 0 0 33.478 18.148h41.875a24.038 24.038 0 0 0 23.815-21.023l4-32a24.013 24.013 0 0 0 -5.822-18.86z" fill="#3f3f3f"/><path d="m360 192h-8.453a71.873 71.873 0 0 1 -80.227 63.461 24.046 24.046 0 0 0 22.805 16.539h41.875a40.045 40.045 0 0 0 40-40v-24a16.019 16.019 0 0 0 -16-16z" fill="#3f3f3f"/><circle cx="164" cy="220" fill="#848484" r="12"/><circle cx="300" cy="220" fill="#848484" r="12"/><path d="m500.24 178.02a254.45 254.45 0 0 0 -33.8-68.31 8 8 0 0 0 -6.56-3.42 8 8 0 0 0 -6.56 12.569 240.323 240.323 0 0 1 -101.32 357.369v-12.228a96.042 96.042 0 0 0 -36.141-75.044 8 8 0 0 0 -9.978 12.508 80.015 80.015 0 0 1 30.119 62.536v16a7.982 7.982 0 0 0 .361 2.382 237.574 237.574 0 0 1 -24.361 7.145v-41.527a8 8 0 0 0 -16 0v44.741a243.146 243.146 0 0 1 -80-.108v-44.633a8 8 0 0 0 -16 0v41.38a238.615 238.615 0 0 1 -24.308-7.2 7.979 7.979 0 0 0 .308-2.18v-16a79.637 79.637 0 0 1 30.122-62.538 8 8 0 0 0 -9.984-12.5 95.56 95.56 0 0 0 -36.138 75.038v11.977a239.667 239.667 0 0 1 -106.78-92.077 8 8 0 1 0 -13.54 8.54 257.149 257.149 0 0 0 91.11 86.71 254.791 254.791 0 0 0 125.54 32.85 256.249 256.249 0 0 0 212.28-112.87 254.656 254.656 0 0 0 38.52-91.54 257.918 257.918 0 0 0 -6.89-129.57z"/><path d="m38.44 356.74a8 8 0 1 0 -7.26 11.369 7.878 7.878 0 0 0 3.36-.75 8.009 8.009 0 0 0 3.9-10.619z"/><path d="m433.95 94.59.08.09a8 8 0 0 0 11.3.54 8 8 0 0 0 .54-11.3l-.08-.09a8 8 0 0 0 -11.83 10.76z"/><path d="m27.28 327.89a240.051 240.051 0 0 1 384.52-254.741 8 8 0 1 0 10.37-12.179 255.037 255.037 0 0 0 -165.84-60.97 257.974 257.974 0 0 0 -51.59 5.2 254.836 254.836 0 0 0 -91.54 38.52 256.958 256.958 0 0 0 -92.75 112.63 254.771 254.771 0 0 0 -14.91 48.06 258.643 258.643 0 0 0 -5.21 51.59 255.866 255.866 0 0 0 11.69 76.68 7.974 7.974 0 0 0 7.63 5.61 8.176 8.176 0 0 0 2.4-.37 8.014 8.014 0 0 0 5.23-10.03z"/><path d="m408 200a151.3 151.3 0 0 0 -25.96-84.98 152.448 152.448 0 0 0 -66.87-55.07 152.668 152.668 0 0 0 -104.17-5.18 8 8 0 0 0 2.36 15.65 8.157 8.157 0 0 0 2.3-.34l.07-.02a136.034 136.034 0 0 1 176.27 129.94v8h-16a16.019 16.019 0 0 0 -16-16h-69.875a23.973 23.973 0 0 0 -22.625 16h-23a23.973 23.973 0 0 0 -22.621-16h-69.879a16.019 16.019 0 0 0 -16 16h-16v-8a136.469 136.469 0 0 1 43.82-100 8 8 0 0 0 -10.85-11.76 152.312 152.312 0 0 0 -35.77 49.72 151.59 151.59 0 0 0 -13.2 62.04v8a48 48 0 1 0 0 96h.12a68 68 0 0 0 67.88 64h52v16a32 32 0 0 0 64 0v-16h52a68 68 0 0 0 67.88-64h.12a48 48 0 1 0 0-96zm-123.873 10.706a7.9 7.9 0 0 1 6-2.706h69.873v24a24.027 24.027 0 0 1 -24 24h-41.875a8.012 8.012 0 0 1 -7.938-7.008l-4-32a7.9 7.9 0 0 1 1.94-6.286zm-132.127-2.706h69.875a8 8 0 0 1 7.938 8.992l-4 32a8.014 8.014 0 0 1 -7.938 7.008h-41.875a24.027 24.027 0 0 1 -24-24zm120 176a16 16 0 0 1 -32 0v-16h32zm158.63-150.63a32 32 0 0 1 -22.63 54.63h-15.95l-.05 12a52 52 0 0 1 -52 52h-168a52 52 0 0 1 -52-52v-11.95l-16-.05a32 32 0 1 1 0-64v8a8 8 0 0 0 16 0v-8h16v8a40.045 40.045 0 0 0 40 40h41.875a24.038 24.038 0 0 0 23.815-21.023l3.372-26.977h21.876l3.372 26.977a24.038 24.038 0 0 0 23.815 21.023h41.875a40.045 40.045 0 0 0 40-40v-8h16v8a8 8 0 0 0 16 0v-8a31.851 31.851 0 0 1 22.63 9.37z"/><path d="m184.12 83.2a8.034 8.034 0 0 0 3.99-1.07l.16-.1a8 8 0 1 0 -4.15 1.17z"/><circle cx="112" cy="264" r="8"/><circle cx="400" cy="264" r="8"/><path d="m275.563 290.077a35.176 35.176 0 0 1 -39.125 0 8 8 0 1 0 -8.875 13.313 51.134 51.134 0 0 0 56.875 0 8 8 0 0 0 -8.875-13.313z"/></g></svg>