<?xml version="1.0" encoding="iso-8859-1"?>
<!-- Generator: Adobe Illustrator 19.0.0, SVG Export Plug-In . SVG Version: 6.00 Build 0)  -->
<svg version="1.1" id="Layer_1" xmlns="http://www.w3.org/2000/svg" xmlns:xlink="http://www.w3.org/1999/xlink" x="0px" y="0px"
	 viewBox="0 0 512.001 512.001" style="enable-background:new 0 0 512.001 512.001;" xml:space="preserve">
<circle style="fill:#E6E6E6;" cx="256.087" cy="60.934" r="52.675"/>
<path style="fill:#D3D3D3;" d="M224.289,60.936c0-25.519,18.148-46.795,42.24-51.637c-3.373-0.678-6.862-1.038-10.436-1.038
	c-29.092,0-52.675,23.583-52.675,52.675s23.583,52.675,52.675,52.675c3.573,0,7.062-0.36,10.436-1.038
	C242.435,107.731,224.289,86.455,224.289,60.936z"/>
<path style="fill:#72CDED;" d="M320.826,331.326c34.47,6.712,60.493,37.085,60.493,73.521v98.94H130.866v-98.94
	c0-36.436,26.023-66.809,60.493-73.521"/>
<path style="fill:#5FBAD3;" d="M223.215,331.326H191.36c-34.47,6.712-60.493,37.085-60.493,73.521v98.94h31.856v-98.94
	C162.722,368.41,188.745,338.038,223.215,331.326z"/>
<g>
	<path style="fill:#E0B394;" d="M140.297,237.39c-13.621-0.604-24.463-11.842-24.463-25.605c0-14.148,11.468-25.627,25.627-25.627
		c1.274,0,2.527,0.088,3.757,0.275"/>
	<path style="fill:#E0B394;" d="M371.878,237.39c13.621-0.604,24.474-11.842,24.474-25.605c0-14.148-11.479-25.627-25.638-25.627
		c-1.274,0-2.537,0.099-3.757,0.275"/>
	<path style="fill:#E0B394;" d="M303.897,308.155v61.027c0,26.397-21.404,47.801-47.801,47.801
		c-26.406,0-47.801-21.404-47.801-47.801v-61.027H303.897z"/>
</g>
<path style="fill:#F7CBA4;" d="M219.018,348.164l-45.091-32.761c-23.828-17.312-36.719-45.94-33.886-75.258l7.821-80.934
	c5.387-55.742,52.229-98.276,108.231-98.276l0,0c56.001,0,102.844,42.534,108.231,98.276l7.821,80.934
	c2.833,29.317-10.057,57.945-33.886,75.258l-45.091,32.761C271.061,364.226,241.125,364.226,219.018,348.164z"/>
<path style="fill:#E0B394;" d="M168.102,256.096c-0.758,12.819,3.416,25.43,11.677,35.261l47.128,57.912
	c2.461,2.933,5.251,5.394,8.272,7.36c-5.668-1.977-11.117-4.811-16.159-8.469l-45.092-32.757
	c-23.826-17.312-36.711-45.938-33.877-75.257l7.81-80.936c5.339-55.198,51.321-97.446,106.607-98.248
	c-34.053,0.824-72.613,32.921-74.623,67.106L168.102,256.096z"/>
<path style="fill:#E6E6E6;" d="M365.636,172.717c-51.947,0-80.969-55.275-80.969-55.275s-24.254,44.873-107.87,43.807
	c-8.953-0.11-18.564-0.758-28.923-2.032h-0.011c5.306-54.88,50.783-96.952,105.619-98.248c0.33-0.011,0.659-0.011,0.989-0.011
	c0.538-0.022,1.076-0.022,1.626-0.022c28,0,53.716,10.633,73.093,28.231c19.388,17.609,32.449,42.171,35.14,70.05L365.636,172.717z"
	/>
<path style="fill:#D3D3D3;" d="M254.47,60.958c-34.053,0.824-72.62,32.921-74.63,67.106l-3.043,33.185
	c-8.953-0.11-18.564-0.758-28.923-2.032h-0.011c5.306-54.88,50.783-96.952,105.619-98.248
	C253.811,60.958,254.141,60.958,254.47,60.958z"/>
<g>
	<circle style="fill:#D7E9F4;" cx="303.64" cy="233.394" r="30.757"/>
	<circle style="fill:#D7E9F4;" cx="208.545" cy="233.394" r="30.757"/>
</g>
<path d="M345.756,331.607c-4.004-2.161-9.001-0.667-11.163,3.337c-2.161,4.004-0.667,9.002,3.337,11.163
	c21.625,11.67,35.057,34.168,35.057,58.716v90.701h-33.509V405.69c0-4.55-3.689-8.239-8.239-8.239s-8.239,3.689-8.239,8.239v89.833
	H188.987V405.69c0-4.55-3.689-8.239-8.239-8.239c-4.55,0-8.239,3.689-8.239,8.239v89.833h-33.498v-36.746
	c0-4.55-3.689-8.239-8.239-8.239c-4.55,0-8.239,3.689-8.239,8.239v44.985c0,4.55,3.689,8.239,8.239,8.239h250.453
	c4.55,0,8.239-3.689,8.239-8.239v-98.94C389.464,374.211,372.716,346.156,345.756,331.607z"/>
<path d="M312.715,368.485c0-4.55-3.689-8.239-8.239-8.239s-8.239,3.689-8.239,8.239c0,22.185-18.049,40.234-40.234,40.234
	s-40.234-18.049-40.234-40.234c0-4.55-3.689-8.239-8.239-8.239c-4.55,0-8.239,3.689-8.239,8.239
	c0,31.27,25.441,56.711,56.711,56.711S312.715,399.755,312.715,368.485z"/>
<path d="M374.335,178.1l-1.904-19.706c-2.802-29.002-16.226-55.761-37.796-75.349c-5.699-5.175-11.845-9.728-18.336-13.638
	c0.393-2.803,0.614-5.642,0.614-8.498C316.913,27.325,289.589,0,256.003,0c-28.814,0-53.915,20.458-59.684,48.644
	c-0.913,4.458,1.962,8.811,6.419,9.724c4.46,0.913,8.811-1.962,9.724-6.419c4.206-20.552,22.518-35.47,43.54-35.47
	c24.5,0,44.433,19.933,44.433,44.433c0,0.17-0.013,0.339-0.015,0.509c-13.963-5.733-29.023-8.747-44.421-8.747
	c-29.137,0-57.064,10.787-78.634,30.374s-34.994,46.347-37.796,75.349l-1.904,19.704c-16.937,1.851-30.162,16.238-30.162,33.66
	c0,15.241,9.997,28.151,23.922,32.392c-1.303,30.403,12.803,59.9,37.568,77.893l7.008,5.091
	c-31.671,12.093-53.465,42.808-53.465,77.686v26.493c0,4.55,3.689,8.239,8.239,8.239c4.55,0,8.239-3.689,8.239-8.239v-26.493
	c0-31.843,22.639-59.362,53.83-65.434c0.005-0.001,0.011-0.003,0.016-0.004l21.225,15.42c12.536,9.107,27.227,13.662,41.917,13.662
	c14.69,0,29.381-4.554,41.917-13.662l45.092-32.761c24.765-17.993,38.871-47.493,37.567-77.896
	c13.925-4.243,23.922-17.152,23.922-32.39C404.497,194.34,391.272,179.957,374.335,178.1z M339.411,218.078
	c-5.958-13.923-19.791-23.704-35.869-23.704c-18.675,0-34.32,13.199-38.112,30.757h-18.862
	c-3.792-17.558-19.436-30.757-38.112-30.757c-16.077,0-29.91,9.781-35.869,23.704l-20.522-17.705l3.101-32.095
	c77.116,7.315,114.1-20.377,128.723-36.39c11.199,16.151,36.35,45.208,74.13,48.69l1.912,19.796L339.411,218.078z M326.061,233.37
	c0,12.417-10.102,22.519-22.519,22.519c-12.417,0-22.519-10.102-22.519-22.519c0-12.417,10.102-22.519,22.519-22.519
	C315.96,210.852,326.061,220.953,326.061,233.37z M230.975,233.37c0,12.417-10.102,22.519-22.519,22.519
	c-12.417,0-22.519-10.102-22.519-22.519c0-12.417,10.102-22.519,22.519-22.519C220.873,210.852,230.975,220.953,230.975,233.37z
	 M188.442,95.246c18.532-16.828,42.525-26.095,67.557-26.095s49.025,9.268,67.557,26.095c18.534,16.829,30.065,39.818,32.473,64.734
	l0.367,3.797c-40.655-5.938-64.292-49.731-64.537-50.196c-1.416-2.696-4.201-4.391-7.244-4.408c-3.052-0.051-5.85,1.643-7.297,4.32
	c-0.263,0.487-26.667,47.142-120.219,38.413C160.995,130.128,171.93,110.239,188.442,95.246z M123.979,211.759
	c0-7.718,5.057-14.269,12.031-16.535l-3.068,31.755C127.58,224.013,123.979,218.311,123.979,211.759z M333.323,308.714
	l-45.091,32.761c-19.279,14.006-45.185,14.007-64.464,0l-45.091-32.761c-21.372-15.527-33.069-41.507-30.528-67.8l1.976-20.454
	l19.534,16.854c1.984,19.657,18.626,35.051,38.797,35.051c18.675,0,34.32-13.199,38.112-30.757h12.486v20.293h-8.239
	c-4.55,0-8.239,3.689-8.239,8.239c0,4.55,3.689,8.239,8.239,8.239h16.477c4.55,0,8.239-3.689,8.239-8.239v-9.681
	c7.094,7.333,17.026,11.906,28.011,11.906c20.171,0,36.813-15.394,38.797-35.051l19.534-16.854l1.976,20.454
	C366.391,267.207,354.694,293.187,333.323,308.714z M379.057,226.975l-3.068-31.748c6.972,2.268,12.029,8.817,12.029,16.532
	C388.02,218.308,384.419,224.009,379.057,226.975z"/>
<path d="M271.921,291.252c-4.253,4.253-9.907,6.595-15.921,6.595s-11.669-2.342-15.921-6.595c-3.217-3.217-8.434-3.216-11.65,0
	c-3.217,3.217-3.217,8.434,0,11.652c7.365,7.365,17.157,11.421,27.573,11.421c10.415,0,20.208-4.056,27.572-11.421
	c3.217-3.217,3.217-8.434,0-11.652C280.355,288.035,275.138,288.035,271.921,291.252z"/>
<path d="M288.715,227.878c0,4.55,3.689,8.239,8.239,8.239h13.177c4.55,0,8.239-3.689,8.239-8.239c0-4.55-3.689-8.239-8.239-8.239
	h-13.177C292.404,219.639,288.715,223.328,288.715,227.878z"/>
<path d="M193.629,227.878c0,4.55,3.689,8.239,8.239,8.239h13.177c4.55,0,8.239-3.689,8.239-8.239c0-4.55-3.689-8.239-8.239-8.239
	h-13.177C197.318,219.639,193.629,223.328,193.629,227.878z"/>
<g>
</g>
<g>
</g>
<g>
</g>
<g>
</g>
<g>
</g>
<g>
</g>
<g>
</g>
<g>
</g>
<g>
</g>
<g>
</g>
<g>
</g>
<g>
</g>
<g>
</g>
<g>
</g>
<g>
</g>
</svg>
